HIERARCHY
ROOT root
{
	OFFSET 0.000000 0.000000 0.000000
	CHANNELS 6 Xposition Yposition Zposition Zrotation Yrotation Xrotation
	JOINT lhip
	{
		OFFSET 0.058581 -0.082280 -0.017664
		CHANNELS 3 Zrotation Yrotation Xrotation
		JOINT lknee
		{
			OFFSET 0.043451 -0.386469 0.008037
			CHANNELS 3 Zrotation Yrotation Xrotation
			JOINT lankle
			{
				OFFSET -0.014790 -0.426874 -0.037428
				CHANNELS 3 Zrotation Yrotation Xrotation
				JOINT ltoe
				{
					OFFSET 0.041054 -0.060286 0.122042
					CHANNELS 3 Zrotation Yrotation Xrotation
					End Site
					{
						OFFSET 0.000000 0.000000 0.000000
					}
				}
			}
		}
	}
	JOINT rhip
	{
		OFFSET -0.060310 -0.090513 -0.013543
		CHANNELS 3 Zrotation Yrotation Xrotation
		JOINT rknee
		{
			OFFSET -0.043257 -0.383688 -0.004843
			CHANNELS 3 Zrotation Yrotation Xrotation
			JOINT rankle
			{
				OFFSET 0.019056 -0.420046 -0.034562
				CHANNELS 3 Zrotation Yrotation Xrotation
				JOINT rtoe
				{
					OFFSET -0.034840 -0.062106 0.130323
					CHANNELS 3 Zrotation Yrotation Xrotation
					End Site
					{
						OFFSET 0.000000 0.000000 0.000000
					}
				}
			}
		}
	}
	JOINT lowerback
	{
		OFFSET 0.004439 0.124404 -0.038385
		CHANNELS 3 Zrotation Yrotation Xrotation
		JOINT upperback
		{
			OFFSET 0.004488 0.137956 0.026820
			CHANNELS 3 Zrotation Yrotation Xrotation
			JOINT chest
			{
				OFFSET -0.002265 0.056032 0.002855
				CHANNELS 3 Zrotation Yrotation Xrotation
				JOINT lowerneck
				{
					OFFSET -0.013390 0.211636 -0.033468
					CHANNELS 3 Zrotation Yrotation Xrotation
					JOINT upperneck
					{
						OFFSET 0.010113 0.088937 0.050410
						CHANNELS 3 Zrotation Yrotation Xrotation
						End Site
						{
							OFFSET 0.000000 0.000000 0.000000
						}
					}
				}
				JOINT lclavicle
				{
					OFFSET 0.071702 0.114000 -0.018898
					CHANNELS 3 Zrotation Yrotation Xrotation
					JOINT lshoulder
					{
						OFFSET 0.122921 0.045205 -0.019046
						CHANNELS 3 Zrotation Yrotation Xrotation
						JOINT lelbow
						{
							OFFSET 0.255332 -0.015649 -0.022946
							CHANNELS 3 Zrotation Yrotation Xrotation
							JOINT lwrist
							{
								OFFSET 0.265709 0.012698 -0.007375
								CHANNELS 3 Zrotation Yrotation Xrotation
								End Site
								{
									OFFSET 0.000000 0.000000 0.000000
								}
							}
						}
					}
				}
				JOINT rclavicle
				{
					OFFSET -0.082954 0.112472 -0.023707
					CHANNELS 3 Zrotation Yrotation Xrotation
					JOINT rshoulder
					{
						OFFSET -0.113228 0.046853 -0.008472
						CHANNELS 3 Zrotation Yrotation Xrotation
						JOINT relbow
						{
							OFFSET -0.260127 -0.014369 -0.031269
							CHANNELS 3 Zrotation Yrotation Xrotation
							JOINT rwrist
							{
								OFFSET -0.269108 0.006794 -0.006027
								CHANNELS 3 Zrotation Yrotation Xrotation
								End Site
								{
									OFFSET 0.000000 0.000000 0.000000
								}
							}
						}
					}
				}
			}
		}
	}
}
MOTION
Frames: 7
Frame Time: 0.033333
1.724971 0.743825 0.982230 -86.286243 2.502025 88.838280 2.741618 -0.576245 2.168571 -3.038376 -14.490028 4.919454 6.943974 9.127340 -20.149919 0.000000 -0.000000 0.000000 2.188925 -1.859417 -1.642230 2.788788 0.561408 11.547506 2.221230 -6.533057 -16.873155 0.000000 -0.000000 0.000000 -2.516588 1.512030 8.318138 1.718890 -2.165623 0.547386 1.933013 -1.458684 4.562580 3.883179 -1.087509 3.119130 -2.657380 -2.835350 0.598909 -23.566137 6.887935 3.940912 -61.925241 -4.231344 6.999834 10.982623 -25.790406 6.870360 -4.369960 -1.692809 -10.864025 21.044296 -4.740571 2.448131 64.789969 -0.665815 9.938710 -15.323959 22.430265 -2.132502 7.290015 0.008978 -10.420867 
1.725039 0.744328 0.981940 -86.269113 2.391217 89.301842 2.560475 -0.642019 1.390576 -3.047566 -14.505571 5.478431 6.945487 9.373286 -20.397070 0.000000 -0.000000 0.000000 2.281200 -1.730938 -2.568180 2.558845 0.622524 12.353953 2.323461 -6.858744 -17.583229 0.000000 -0.000000 0.000000 -2.548979 1.476510 8.754929 1.723274 -2.132815 0.763858 1.870886 -1.399972 4.858633 3.982713 -1.270936 2.350164 -2.481950 -3.227692 0.553710 -23.426323 6.786230 4.000727 -61.403787 -4.342304 6.938414 10.717468 -26.175769 6.719682 -3.878868 -1.436042 -10.747429 21.030616 -4.875412 2.137526 64.569994 -1.087980 9.850975 -15.167018 22.672706 -2.109734 7.202455 -0.175891 -10.123472 
1.725355 0.744914 0.981546 -86.214373 2.417935 90.037807 2.551827 -0.791810 0.119736 -3.172209 -14.506148 6.390105 6.872564 9.593276 -20.764945 0.000000 -0.000000 0.000000 2.475997 -1.486323 -3.758240 2.395841 0.465799 13.127899 2.298112 -7.175351 -18.122182 0.000000 -0.000000 0.000000 -2.401505 1.360221 9.370942 1.672807 -2.083492 0.506283 1.827585 -1.412377 5.063634 3.981998 -1.181204 1.824317 -2.494438 -3.380188 0.552917 -23.150922 6.860136 3.966607 -61.156698 -4.236949 6.905247 10.565207 -26.378353 6.738658 -4.052053 -1.648414 -10.884972 20.904835 -5.120803 2.177003 64.392761 -1.436902 9.828312 -15.059263 22.980578 -2.040855 7.196948 -0.012837 -10.302441 
1.725094 0.745653 0.981339 -86.142666 2.340634 90.457687 2.216693 -1.029108 -1.000427 -3.053663 -14.587724 7.867527 6.903478 10.029282 -21.626730 0.000000 -0.000000 0.000000 2.632371 -1.309183 -4.726572 2.264117 0.800802 14.206758 2.475095 -7.706230 -18.903470 0.000000 -0.000000 0.000000 -2.419789 1.353436 10.508338 1.698689 -2.018311 0.092961 1.846216 -1.526389 5.419769 4.255922 -1.161916 0.853628 -2.623590 -3.731580 0.810102 -23.140488 7.154233 3.500527 -60.583565 -4.031812 6.965174 10.000495 -26.678805 6.843547 -3.524179 -1.531940 -10.626910 21.114075 -5.385473 1.733946 63.828632 -1.894783 10.084662 -14.723469 23.185747 -2.016563 6.838252 0.215993 -9.942386 
1.725182 0.746461 0.980713 -86.212413 2.115176 91.205872 1.595176 -1.692276 -2.751802 -2.928905 -14.554004 9.993948 6.863183 10.808776 -22.451465 0.000000 -0.000000 0.000000 2.775234 -0.675346 -6.585954 1.802027 0.693245 16.257778 2.357657 -8.272791 -20.214913 0.000000 -0.000000 0.000000 -2.537012 1.330528 11.574112 1.668630 -1.980422 -0.506031 1.770046 -1.584868 5.789199 4.428654 -0.785630 -0.201857 -2.887729 -4.153461 1.295912 -23.144186 7.331180 3.234352 -60.034344 -3.757162 7.176480 9.710286 -26.970431 6.779340 -3.339363 -1.747919 -10.461067 21.487151 -5.451773 1.584900 63.342025 -2.146265 10.406587 -14.708734 23.278596 -2.291900 6.456239 0.396171 -9.783780 
1.725565 0.748565 0.977381 -86.107091 2.534830 92.999427 1.822287 -2.778567 -6.809781 -3.029118 -13.852632 14.472971 5.768468 11.246807 -24.935416 0.000000 -0.000000 0.000000 4.081823 1.765451 -10.182998 0.458451 -0.110045 19.702715 2.380684 -10.018717 -22.341401 0.000000 -0.000000 0.000000 -2.450215 1.105087 10.725902 2.439027 -1.974262 1.130375 1.469069 -1.364490 4.780094 4.482197 -1.019376 0.786512 -3.129818 -4.207082 -2.010744 -22.198768 7.546758 3.253485 -60.804985 -3.697177 8.918839 9.447835 -26.851429 8.424896 -0.810944 -2.228962 -13.992146 20.459185 -5.926506 1.336061 64.919722 -2.132974 11.098128 -15.621818 22.709958 -1.424038 4.542522 1.626337 -10.143165 
1.726822 0.749733 0.972473 -85.998973 2.438925 94.065085 1.413433 -4.885606 -10.586194 -3.292327 -12.860284 19.954007 6.156857 12.740933 -26.770350 0.000000 -0.000000 0.000000 4.255751 2.838389 -13.583304 0.054656 -0.155744 24.020767 2.442823 -11.161978 -24.426670 0.000000 -0.000000 0.000000 -2.211738 1.021985 12.245794 2.458168 -1.910831 0.062108 1.220479 -1.610961 5.105662 4.661823 -0.974912 -0.378008 -3.325749 -4.503880 -2.250484 -21.826902 7.716591 3.228405 -60.941082 -3.563002 9.232661 9.359837 -27.161699 8.797154 -1.169395 -2.499615 -14.711473 20.402467 -6.074779 0.993539 65.071710 -2.247642 11.664193 -15.752540 23.198215 -1.170353 4.968063 1.931764 -10.564639 
